# xmcd
#
# Track frame offsets:
#	150
#	14173
#	33926
#	51158
#	67638
#	83271
#	103132
#	124788
#	142313
#	159196
#	176822
#	194872
#	214055
#	229709
#	262130
#
# Disc length: 3555 seconds
#
# Revision: 0
# Processed by: cddbd v1.5.2PL0 Copyright (c) Steve Scherf et al.
# Submitted via: EasyCDDAExtractor 12.0.4.1
#
DISCID=d70de10f
DTITLE=The Pointer Sisters - The Very Best of the Pointer Sisters
DYEAR=2009
DGENRE=R&B
TTITLE0=Yes We Can Can
TTITLE1=Freedom
TTITLE2=What A Surprise
TTITLE3=He's So Shy
TTITLE4=How Long (Betcha' Got A Chick on The Side)
TTITLE5=Jump (For My Love)
TTITLE6=Automatic
TTITLE7=Slow Hand
TTITLE8=Dare Me
TTITLE9=I'm So Excited
TTITLE10=Happiness
TTITLE11=Neutron Dance
TTITLE12="Fire
TTITLE13=Jada
TTITLE14=[CD-Rom Track]
EXTD=
EXTT0=
EXTT1=
EXTT2=
EXTT3=
EXTT4=
EXTT5=
EXTT6=
EXTT7=
EXTT8=
EXTT9=
EXTT10=
EXTT11=
EXTT12=
EXTT13=
EXTT14=
PLAYORDER=
